<?xml version="1.0" encoding="utf-8"?>
<!-- Generator: Adobe Illustrator 15.1.0, SVG Export Plug-In . SVG Version: 6.00 Build 0)  -->
<!DOCTYPE svg PUBLIC "-//W3C//DTD SVG 1.1//EN" "http://www.w3.org/Graphics/SVG/1.1/DTD/svg11.dtd">
<svg version="1.1" id="Layer_1" xmlns="http://www.w3.org/2000/svg" xmlns:xlink="http://www.w3.org/1999/xlink" x="0px" y="0px"
	 width="209.884px" height="107.668px" viewBox="0 0 209.884 107.668" enable-background="new 0 0 209.884 107.668"
	 xml:space="preserve">
<g>
	<g enable-background="new    ">
		<path fill="#6D7F90" d="M47.441,56.118h0.768v2.47h3.971v-2.47h0.768v5.929H52.18v-2.759h-3.971v2.759h-0.768V56.118z"/>
		<path fill="#6D7F90" d="M60.625,61.958c-0.211,0.066-0.434,0.111-0.656,0.111c-0.523,0-0.723-0.268-0.779-0.935
			c-0.679,0.757-1.446,1.046-2.536,1.046c-1.457,0-2.247-0.656-2.247-1.769c0-0.534,0.211-0.957,0.623-1.269
			c0.423-0.312,1.124-0.423,2.103-0.556c1.435-0.201,2.058-0.134,2.058-0.924c0-0.646-0.567-0.99-1.646-0.99
			c-1.357,0-2.058,0.456-2.113,1.38h-0.768c0.089-1.391,1.012-2.08,2.781-2.08c1.068,0,1.769,0.188,2.18,0.7
			c0.323,0.4,0.345,0.856,0.345,1.457v2.626c0,0.389,0.011,0.589,0.322,0.589c0.089,0,0.2-0.011,0.334-0.056V61.958z M57.144,59.299
			c-1.301,0.2-1.958,0.333-1.958,1.134c0,0.612,0.556,1.046,1.535,1.046c1.457,0,2.469-0.745,2.469-1.847v-0.801
			C58.846,59.021,58.156,59.143,57.144,59.299z"/>
		<path fill="#6D7F90" d="M64.988,56.118c1.29,0,1.902,0.601,1.902,1.612c0,0.602-0.289,0.979-0.79,1.202
			c0.656,0.155,0.979,0.667,0.979,1.39c0,1.146-0.69,1.725-2.169,1.725h-3.081v-5.929H64.988z M64.955,58.698
			c0.579,0,1.146-0.3,1.146-0.878c0-0.768-0.345-1.002-1.368-1.002h-2.136v1.88H64.955z M62.597,61.345h2.292
			c1.09,0,1.401-0.277,1.401-1.012c0-0.679-0.289-1.034-1.346-1.034h-2.347V61.345z"/>
		<path fill="#6D7F90" d="M68.361,56.118h0.768v5.017l3.782-5.017h0.957v5.929H73.1v-5.039l-3.793,5.039h-0.945V56.118z"/>
		<path fill="#6D7F90" d="M75.483,56.118h5.072v0.7H76.25v5.229h-0.768V56.118z"/>
		<path fill="#6D7F90" d="M87.587,61.958c-0.211,0.066-0.434,0.111-0.656,0.111c-0.523,0-0.723-0.268-0.779-0.935
			c-0.679,0.757-1.446,1.046-2.536,1.046c-1.457,0-2.247-0.656-2.247-1.769c0-0.534,0.211-0.957,0.623-1.269
			c0.423-0.312,1.124-0.423,2.103-0.556c1.435-0.201,2.058-0.134,2.058-0.924c0-0.646-0.567-0.99-1.646-0.99
			c-1.357,0-2.058,0.456-2.113,1.38h-0.768c0.089-1.391,1.012-2.08,2.781-2.08c1.068,0,1.769,0.188,2.18,0.7
			c0.323,0.4,0.345,0.856,0.345,1.457v2.626c0,0.389,0.011,0.589,0.322,0.589c0.089,0,0.2-0.011,0.334-0.056V61.958z M84.105,59.299
			c-1.301,0.2-1.958,0.333-1.958,1.134c0,0.612,0.556,1.046,1.535,1.046c1.457,0,2.469-0.745,2.469-1.847v-0.801
			C85.808,59.021,85.118,59.143,84.105,59.299z"/>
		<path fill="#6D7F90" d="M90.493,62.046v-5.229h-2.402v-0.7h5.573v0.7h-2.403v5.229H90.493z"/>
		<path fill="#6D7F90" d="M97.403,55.917c1.891,0,3.17,1.279,3.17,3.17s-1.279,3.17-3.17,3.17c-1.891,0-3.159-1.279-3.159-3.17
			S95.512,55.917,97.403,55.917z M97.403,61.501c1.457,0,2.369-0.945,2.369-2.414c0-1.468-0.912-2.414-2.369-2.414
			c-1.446,0-2.37,0.935-2.37,2.414S95.957,61.501,97.403,61.501z"/>
		<path fill="#6D7F90" d="M101.877,56.118h0.779v1.046c0.589-0.813,1.324-1.18,2.347-1.18c1.891,0,3.136,1.257,3.136,3.104
			c0,1.836-1.268,3.104-3.136,3.104c-0.99,0-1.735-0.355-2.347-1.168v3.148h-0.779V56.118z M104.992,61.457
			c1.435,0,2.347-0.945,2.347-2.369c0-1.435-0.912-2.381-2.347-2.381c-1.435,0-2.336,0.935-2.336,2.381
			C102.656,60.522,103.557,61.457,104.992,61.457z"/>
	</g>
	<g enable-background="new    ">
		<path fill="#6D7F90" d="M61.907,65.738h5.506v5.929h-0.768v-5.229h-3.971v5.229h-0.768V65.738z"/>
		<path fill="#6D7F90" d="M71.843,65.538c1.891,0,3.17,1.279,3.17,3.17s-1.279,3.17-3.17,3.17s-3.159-1.279-3.159-3.17
			S69.952,65.538,71.843,65.538z M71.843,71.122c1.457,0,2.369-0.945,2.369-2.414c0-1.468-0.912-2.414-2.369-2.414
			c-1.446,0-2.37,0.935-2.37,2.414S70.397,71.122,71.843,71.122z"/>
		<path fill="#6D7F90" d="M85.618,69.508c-0.167,1.401-1.357,2.369-2.903,2.369c-1.891,0-3.159-1.279-3.159-3.17
			s1.268-3.17,3.159-3.17c1.513,0,2.647,0.89,2.848,2.169h-0.801c-0.289-0.935-1.023-1.435-2.069-1.435
			c-1.391,0-2.347,0.956-2.347,2.436s0.923,2.414,2.37,2.414c1.09,0,1.913-0.634,2.113-1.613H85.618z"/>
		<path fill="#6D7F90" d="M87,73.802c-0.2,0-0.423-0.045-0.667-0.111v-0.745c0.323,0.066,0.567,0.1,0.756,0.1
			c0.689,0,0.979-0.422,1.401-1.401l-2.703-5.906h0.89l2.214,5.128l2.236-5.128h0.856l-3.048,6.641
			C88.513,73.313,88.201,73.802,87,73.802z"/>
		<path fill="#6D7F90" d="M93.42,67.84v-2.103h4.616v5.228h0.667v2.48h-0.768v-1.779h-5.028v1.779h-0.768v-2.48h0.545
			C93.287,70.209,93.42,69.52,93.42,67.84z M97.269,70.965v-4.527h-3.081v1.813c0,1.302-0.211,2.08-0.634,2.714H97.269z"/>
		<path fill="#6D7F90" d="M102.811,68.229c1.513,0,2.091,0.701,2.091,1.713c0,1.146-0.69,1.725-2.169,1.725h-3.081v-5.918h0.768
			v2.48H102.811z M100.419,70.965h2.292c1.09,0,1.401-0.277,1.401-1.012c0-0.679-0.323-1.023-1.391-1.023h-2.302V70.965z"/>
		<path fill="#6D7F90" d="M108.942,65.738c2.014,0,3.004,1.356,3.004,3.059c0,1.847-1.201,3.07-3.059,3.07
			c-2.047,0-3.06-1.379-3.06-3.349c0-1.936,0.333-3.993,2.659-4.382c1.523-0.268,2.068-0.379,2.068-0.724h0.813
			c0,0.779-0.979,1.112-2.537,1.279c-1.323,0.145-2.035,0.924-2.213,2.392C107.04,66.372,107.819,65.738,108.942,65.738z
			 M111.133,68.796c0-1.368-0.634-2.458-2.246-2.458c-1.603,0-2.248,1.123-2.248,2.38c0,1.357,0.768,2.548,2.248,2.548
			C110.489,71.266,111.133,70.053,111.133,68.796z"/>
		<path fill="#6D7F90" d="M116.243,71.877c-1.914,0-3.16-1.279-3.16-3.17s1.269-3.17,3.16-3.17c1.891,0,3.147,1.234,3.147,3.159
			v0.178h-5.45c0,1.401,0.912,2.247,2.303,2.247c1.012,0,1.768-0.489,2.057-1.346h0.868
			C118.856,71.066,117.744,71.877,116.243,71.877z M118.511,68.229c0-1.179-0.989-1.957-2.269-1.957
			c-1.303,0-2.303,0.789-2.303,1.957H118.511z"/>
	</g>
	<g>
		<path fill="#6D7F90" d="M79.833,11.581c-0.497-0.81-1.196-1.337-1.618-1.594c-0.879-0.539-2.315-0.555-3.917,0.335
			c-1.486,0.825-5.434,4.767-7.298,8.246c-1.863,3.479-6.289,13.705-7.957,19.329c2.44-8.828,5.536-16.872,5.662-19.498
			c0.09-1.855-0.193-3.205-1.314-4.286c-1.467-1.414-2.693-1.527-4.617-0.894c-2.336,0.924-3.51,3.2-4.144,4.151
			c-2.174,3.616-3.803,7.067-5.385,10.528c-3.229,6.807-5.47,13.979-7.73,20.009c-2.371,6.025-5.003,11.141-8.531,14.637
			c-1.854,1.707-3.542,2.053-5.361,1.441c-1.561-0.523-2.959-2.34-4.221-4.281c-2.445-3.735-5.324-10.394-7.916-13.675
			c-2.434-3.423-7.38-7.172-10.049-8.112c-1.355-0.451-2.147-0.801-3.702-0.858c-1.554-0.058-2.099,1.11-1.493,2.065
			s1.281,1.117,1.702,1.264c-0.61-0.354-1.307-1.017-1.459-1.461c-0.652-1.909,2.421-1.155,4.471,0.082
			c2.369,1.209,6.692,5.063,8.499,8.329c2.027,3.225,4.143,9.306,6.64,14.275c1.268,2.31,2.691,4.521,5.636,6.519
			c3.696,2.074,8.337,1.07,10.728-1.352c5.283-4.611,8.256-9.609,10.982-18.317c2.726-8.709,7.573-19.788,9.588-22.658
			c-2.35,4.94-4.092,10.933-4.414,12.518c-0.413,2.035-0.708,4.112-0.764,6.852c-0.084,4.082,1.865,4.854,3.52,5.142
			c1.655,0.288,3.006-0.854,3.485-1.277s0.562-0.65,0.865-1.005c0.479-0.623,0.65-1.008,0.981-1.524
			c0.505-0.912,0.951-1.791,1.364-2.648c0.815-1.713,1.55-3.377,2.269-5.017c1.427-3.263,2.763-6.444,4.164-9.369
			c0.835-1.71,1.801-3.564,2.743-5.362c-0.195,0.521-0.389,1.041-0.577,1.554c-1.731,4.746-3.129,9.145-3.753,13.195
			c-0.641,3.875-0.433,8.237,2.413,10.14c3.286,1.304,5.161-0.654,6.407-1.147c1.25-0.747,1.775-1.317,1.772-1.31
			c-0.002-0.002-0.597,0.467-1.924,1.019c-1.168,0.425-2.416,0.857-4.614-1.038c-2.616-2.256,0.057-10.688,4.935-18.813
			C77.288,25.403,81.957,15.043,79.833,11.581z"/>
		<path fill="#6D7F90" d="M86.695,41.217c1.68-3.757,2.668-7.103,2.464-10.289c-0.204-3.186-1.284-4.057-2.366-4.448
			c0.671,2.821-3.525,4.338-7.151,11.806c-0.783,1.986-1.412,4.039-1.284,6.541c-0.087,2.494,1.369,4.673,3.694,5.714
			c2.326,1.041,4.813-0.204,4.853-0.037c0.135-0.022-2.508-0.306-2.568-3.024S85.524,43.835,86.695,41.217z"/>
		<path fill="#6D7F90" d="M87.601,14.545c-2.373-0.053-1.926,2.879-1.201,3.779c0.913,1.136,2.233,3.862,1.078,3.858
			c-1.35-0.005,0.382-2.807,1.242-3.981C89.226,17.51,89.99,14.598,87.601,14.545z"/>
		<path fill="#6D7F90" d="M108.372,46.184c-0.317-3.354,1.686-5.601,1.664-11.639c-0.072-1.53-0.912-3.857-2.709-5.251
			c-1.645-1.228-3.541-2.066-6.113-1.76c-1.236,0.269-2.251,0.685-3.109,1.19c-0.23-1.413-0.612-2.617-1.184-3.532
			c-1.083-1.692-2.351-1.565-2.537-1.585c0.099,0.086,1.215,0.487,1.435,2.043c0.257,1.415,0.086,3.311-0.869,6.133
			c-1.347,3.977-3.571,5.775-5.334,15.077c-0.695,3.759,5.766,5.771,6.645,1.79c0.206-0.93,0.071-3.078,0.785-6.141
			c0.543-2.326,1.622-8.541,5.462-7.964c1.021,0.153,1.478,0.991,1.685,1.685c0.679,2.981-1.286,7.3-0.051,10.976
			c1.138,4.012,4.808,5.827,6.567,6.341c1.869,0.599,5.031,1.366,6.176,1.293C114.075,54.304,108.872,51.479,108.372,46.184z"/>
		<path fill="#6D7F90" d="M152.27,22.981c-2.861,16.226-11.523,25.48-15.563,30.155c-0.334-0.614-0.664-1.228-0.973-1.839
			c-3.061-5.851-4.943-11.761-5.963-17.531c0,0-0.337-2.237-0.518-2.999c-5.028-0.255-3.559,6.508-3.754,9.504
			c-0.164,2.54-0.885,4.308-2.222,5.77c-2.874,3.066-6.844,1.029-7.478-2.755c-0.633-3.783,0.462-6.871,1.908-9.125
			c4.209-6.559,12.554-7.94,15.677-8.4c-3.788,0.358-11.313,0.409-16.783,7.162c-1.839,2.271-3.452,5.342-3.582,9.772
			c-0.099,3.276,0.392,5.862,3.289,7.501c3.116,1.762,6.438,0.91,8.733-1.257c0.793-0.713,1.443-1.541,1.994-2.43
			c0.778,2.532,1.734,5.073,2.887,7.581c0.486,1.142,1.025,2.286,1.596,3.432c-2.934,2.566-6.02,5.369-9.143,8.55
			c-4.219,4.519-9.067,9.476-11.539,17.242c-2.643,8.444-0.256,19.198,9.359,22.75c5.908,2.183,10.818,2.089,15.535,0.021
			c4.563-1.871,8.223-5.412,10.594-9.582c2.359-4.185,3.537-8.846,3.432-13.479c0-4.8-1.834-9.121-3.395-12.571
			c-2.4-5.229-5.268-9.74-7.793-14.033c0.018-0.013,0.038-0.017,0.053-0.032c1.918-2.14,3.808-4.438,6.51-9.228
			C149.29,39.8,152.09,26.555,152.27,22.981z M139.697,92.711c-3.388,6.025-9.875,6.547-14.071,5.477
			c-4.152-1.059-8.91-6.973-8.006-13.688c0.903-6.715,4.905-10.432,8.627-14.918c2.455-2.901,4.939-5.59,7.342-8.114
			C139.241,71.889,145.898,82.413,139.697,92.711z"/>
	</g>
	<g>
		<path fill="#E84F08" d="M207.393,44.786c1.68-3.756,2.668-7.102,2.465-10.288c-0.204-3.188-1.283-4.058-2.365-4.449
			c0.67,2.821-3.525,4.339-7.152,11.806c-0.782,1.987-1.412,4.039-1.283,6.542c-0.087,2.493,1.367,4.673,3.693,5.713
			c2.326,1.041,4.813-0.204,4.854-0.036c0.136-0.021-2.509-0.306-2.567-3.024C204.978,48.332,206.222,47.404,207.393,44.786z"/>
		<path fill="#E84F08" d="M207.862,18.068c-2.373-0.053-1.926,2.879-1.201,3.78c0.914,1.135,2.233,3.861,1.077,3.857
			c-1.35-0.005,0.382-2.807,1.242-3.981C209.487,21.034,210.25,18.121,207.862,18.068z"/>
		<path fill="#E84F08" d="M180.788,50.12c-5.047-1.289-9.021-7.946-16.375-3.837c2.629-2.504,7.565-7.27,11.828-16.299
			c3.652-7.741,3.975-12.765,4.993-17.346c0.72-4.514,5.351-10.406,7.747-11.406c2.38-0.954,3.986-0.788,3.958-0.899
			c-0.009,0.128-1.408-0.571-4.291-0.246c-2.912,0.264-6.146,0.216-11.864,5.935c-4.662,4.663-7.837,10.591-10.255,18.227
			c-2.946,9.307-1.722,14.753-4.108,19.816c-2.596,5.509-6.119,6.758-10.174,13.958c8.426-8.069,14.295-8.021,18.982-5.002
			c2.219,1.431,4.083,2.669,7.84,3.222c3.65,0.537,7.484,0.072,10.594-0.898c2.457-0.768,6.065-3.301,9.213-7.447
			C190.737,52.35,185.834,51.41,180.788,50.12z"/>
	</g>
</g>
</svg>
