<?xml version="1.0" encoding="utf-8"?>
<!-- Generator: Adobe Illustrator 15.1.0, SVG Export Plug-In . SVG Version: 6.00 Build 0)  -->
<!DOCTYPE svg PUBLIC "-//W3C//DTD SVG 1.1//EN" "http://www.w3.org/Graphics/SVG/1.1/DTD/svg11.dtd">
<svg version="1.1" id="Layer_1" xmlns="http://www.w3.org/2000/svg" xmlns:xlink="http://www.w3.org/1999/xlink" x="0px" y="0px"
	 width="52.564px" height="52.574px" viewBox="0 0 52.564 52.574" enable-background="new 0 0 52.564 52.574" xml:space="preserve">
<g>
	<path fill="#FFFFFF" d="M12.508,33.547L1.351,44.709c-1.802,1.8-1.801,4.716,0,6.517c1.8,1.799,4.716,1.799,6.515,0l11.159-11.16
		C16.504,38.27,14.302,36.067,12.508,33.547z"/>
	<path fill="#FFFFFF" d="M32.705,0C21.751,0,12.842,8.91,12.842,19.858c0,4.488,1.462,8.727,4.227,12.25
		c3.797,4.84,9.492,7.612,15.632,7.612c6.141,0,11.841-2.772,15.637-7.608c2.768-3.523,4.228-7.762,4.229-12.254
		C52.564,8.91,43.654,0,32.705,0z M48.504,18.694h-7.839c-0.078-1.996-0.347-3.843-0.746-5.526c2.286-0.59,4.258-1.398,5.888-2.23
		C47.337,13.179,48.294,15.836,48.504,18.694z M44.255,9.027c-1.409,0.688-3.078,1.34-4.982,1.828
		c-0.875-2.679-2.021-4.849-3.047-6.45C39.357,5.121,42.13,6.762,44.255,9.027z M27.475,18.695c0.09-1.758,0.371-3.418,0.769-4.961
		c1.398,0.215,2.883,0.344,4.461,0.344c1.727,0,3.347-0.148,4.86-0.406c0.371,1.535,0.628,3.211,0.71,5.022L27.475,18.695z
		 M38.271,21.094c-0.083,1.87-0.36,3.593-0.75,5.159c-1.496-0.253-3.1-0.417-4.816-0.418c-1.559,0-3.028,0.129-4.407,0.341
		c-0.421-1.579-0.723-3.278-0.819-5.082H38.271z M32.833,4.008c0.06,0,0.113,0.008,0.171,0.008c1.043,1.355,2.7,3.863,3.889,7.332
		c-1.31,0.211-2.707,0.332-4.188,0.332c-1.316,0-2.565-0.102-3.746-0.266C30.166,8.022,31.809,5.427,32.833,4.008z M29.748,4.285
		c-1.043,1.664-2.254,3.935-3.188,6.676c-2.082-0.496-3.895-1.196-5.41-1.934C23.404,6.628,26.384,4.927,29.748,4.285z
		 M19.599,10.937c1.727,0.883,3.832,1.733,6.284,2.332c-0.421,1.684-0.714,3.5-0.8,5.426H16.9
		C17.111,15.836,18.068,13.179,19.599,10.937z M16.893,21.096h8.194c0.094,1.975,0.398,3.828,0.844,5.541
		C23.49,27.225,21.4,28.07,19.7,28.928C18.071,26.597,17.107,23.928,16.893,21.096z M21.26,30.835
		c1.492-0.715,3.289-1.405,5.359-1.896c0.93,2.669,2.114,4.88,3.132,6.505C26.513,34.839,23.56,33.242,21.26,30.835z M32.836,35.719
		c-1-1.396-2.604-3.927-3.808-7.224c1.161-0.164,2.383-0.258,3.671-0.258c1.465,0,2.84,0.125,4.129,0.327
		c-1.179,3.384-2.796,5.821-3.825,7.149C32.951,35.714,32.896,35.719,32.836,35.719z M36.216,35.332
		c1.005-1.563,2.121-3.667,2.995-6.27c1.923,0.489,3.591,1.128,4.939,1.773C41.982,33.101,39.232,34.657,36.216,35.332z
		 M45.701,28.932c-1.543-0.78-3.504-1.582-5.832-2.179c0.422-1.719,0.706-3.606,0.793-5.656h7.853
		C48.298,23.928,47.334,26.6,45.701,28.932z"/>
</g>
</svg>
